<svg width="396" height="320" viewBox="0 0 396 320" fill="none" xmlns="http://www.w3.org/2000/svg">
<path d="M1.84981 269.926L6.42567 281.523L10.9821 269.926H12.8319L7.22401 283.718H5.62733L0 269.926H1.84981Z" fill="#230B34"/>
<path d="M17.5894 283.912C16.5768 283.912 15.6811 283.672 14.9023 283.193C14.1234 282.714 13.5133 282.073 13.0719 281.27C12.6306 280.467 12.4099 279.593 12.4099 278.648C12.4099 277.69 12.6306 276.815 13.0719 276.025C13.5133 275.236 14.1234 274.601 14.9023 274.122C15.6941 273.643 16.5963 273.403 17.6088 273.403C18.6343 273.403 19.5236 273.649 20.2765 274.141C21.0423 274.62 21.633 275.255 22.0484 276.045C22.4768 276.822 22.691 277.664 22.691 278.57C22.691 278.855 22.678 279.075 22.652 279.231H14.2207C14.2727 279.891 14.4544 280.48 14.766 280.998C15.0905 281.503 15.5059 281.905 16.0121 282.203C16.5184 282.487 17.0636 282.63 17.6478 282.63C18.2709 282.63 18.855 282.474 19.4002 282.164C19.9584 281.853 20.3414 281.445 20.5491 280.94L22.0289 281.348C21.7044 282.099 21.1397 282.714 20.3349 283.193C19.53 283.672 18.6149 283.912 17.5894 283.912ZM14.1623 278.046H21.0943C21.0423 277.385 20.8541 276.802 20.5296 276.297C20.2051 275.792 19.7897 275.397 19.2834 275.113C18.7771 274.828 18.2189 274.685 17.6088 274.685C17.0117 274.685 16.46 274.828 15.9537 275.113C15.4475 275.397 15.0321 275.792 14.7075 276.297C14.396 276.802 14.2143 277.385 14.1623 278.046Z" fill="#230B34"/>
<path d="M29.9699 275.074C29.1131 275.087 28.3537 275.307 27.6917 275.734C27.0426 276.148 26.5818 276.725 26.3092 277.463V283.718H24.5957V273.578H26.1924V275.928C26.5429 275.229 27.0037 274.666 27.5749 274.238C28.159 273.798 28.7691 273.552 29.4052 273.5C29.535 273.5 29.6453 273.5 29.7362 273.5C29.8271 273.5 29.905 273.507 29.9699 273.52V275.074Z" fill="#230B34"/>
<path d="M32.1367 286.476C32.3055 286.489 32.4742 286.502 32.643 286.515C32.8117 286.541 32.9415 286.554 33.0324 286.554C33.2401 286.554 33.4218 286.482 33.5776 286.34C33.7334 286.197 33.9021 285.919 34.0839 285.505C34.2786 285.103 34.5252 284.508 34.8238 283.718L30.5206 273.578H32.3314L35.7585 281.989L38.8545 273.578H40.5485L35.6027 286.379C35.4339 286.832 35.1289 287.227 34.6875 287.564C34.2591 287.913 33.6815 288.088 32.9545 288.088C32.8377 288.088 32.7144 288.082 32.5846 288.069C32.4677 288.056 32.3185 288.03 32.1367 287.991V286.476Z" fill="#230B34"/>
<path d="M50.1579 283.912C49.3142 283.912 48.5223 283.776 47.7824 283.504C47.0425 283.219 46.4064 282.798 45.8742 282.241L46.5362 281.037C47.1204 281.581 47.7045 281.969 48.2887 282.203C48.8728 282.436 49.4699 282.552 50.0801 282.552C50.781 282.552 51.3522 282.423 51.7936 282.164C52.2349 281.892 52.4556 281.497 52.4556 280.979C52.4556 280.603 52.3388 280.325 52.1051 280.143C51.8844 279.962 51.5664 279.813 51.151 279.697C50.7356 279.567 50.2423 279.425 49.6712 279.269C48.6197 278.972 47.8149 278.622 47.2567 278.22C46.7115 277.806 46.4389 277.204 46.4389 276.414C46.4389 275.456 46.8023 274.718 47.5293 274.2C48.2692 273.669 49.2103 273.403 50.3527 273.403C51.8844 273.403 53.0917 273.863 53.9744 274.782L53.1955 275.967C52.4037 275.151 51.4236 274.743 50.2553 274.743C49.9048 274.743 49.5608 274.789 49.2233 274.879C48.8858 274.957 48.6067 275.106 48.386 275.326C48.1653 275.533 48.055 275.831 48.055 276.22C48.055 276.699 48.2497 277.042 48.6392 277.249C49.0286 277.456 49.5998 277.67 50.3527 277.89C51.1186 278.11 51.7806 278.331 52.3388 278.551C52.91 278.771 53.3513 279.056 53.6629 279.405C53.9744 279.755 54.1302 280.241 54.1302 280.862C54.1302 281.82 53.7667 282.572 53.0398 283.115C52.3128 283.646 51.3522 283.912 50.1579 283.912Z" fill="#230B34"/>
<path d="M56.1802 271.674V269.538H57.8937V271.674H56.1802ZM56.1802 283.718V273.578H57.8937V283.718H56.1802Z" fill="#230B34"/>
<path d="M75.9921 283.718H74.2785V278.046C74.2785 276.984 74.1033 276.2 73.7528 275.695C73.4153 275.19 72.909 274.938 72.234 274.938C71.546 274.938 70.9229 275.19 70.3647 275.695C69.8065 276.187 69.4106 276.828 69.177 277.618V283.718H67.4634V278.046C67.4634 276.971 67.2947 276.187 66.9572 275.695C66.6197 275.19 66.1134 274.938 65.4384 274.938C64.7634 274.938 64.1403 275.184 63.5691 275.676C63.0109 276.155 62.615 276.796 62.3813 277.599V283.718H60.6678V273.578H62.2255V275.754C62.6409 275.002 63.1797 274.426 63.8417 274.025C64.5037 273.61 65.2502 273.403 66.0809 273.403C66.9247 273.403 67.5997 273.636 68.106 274.102C68.6123 274.556 68.9238 275.145 69.0407 275.87C69.9493 274.225 71.241 273.403 72.9155 273.403C73.6944 273.403 74.3045 273.591 74.7459 273.966C75.2002 274.329 75.5183 274.834 75.7 275.482C75.8947 276.116 75.9921 276.841 75.9921 277.657V283.718Z" fill="#230B34"/>
<path d="M84.1279 283.912C83.2971 283.912 82.5572 283.705 81.9081 283.29C81.2591 282.876 80.7463 282.351 80.3699 281.717V287.855H78.6563V273.578H80.1751V275.482C80.5775 274.86 81.1033 274.361 81.7523 273.986C82.4014 273.597 83.1089 273.403 83.8748 273.403C84.5757 273.403 85.2183 273.546 85.8025 273.83C86.3866 274.115 86.8929 274.504 87.3213 274.996C87.7496 275.488 88.0807 276.051 88.3143 276.686C88.561 277.308 88.6843 277.961 88.6843 278.648C88.6843 279.606 88.4896 280.487 88.1001 281.29C87.7237 282.092 87.1914 282.733 86.5034 283.213C85.8154 283.679 85.0236 283.912 84.1279 283.912ZM83.6022 282.436C84.2772 282.436 84.8613 282.254 85.3546 281.892C85.8479 281.529 86.2308 281.056 86.5034 280.474C86.789 279.891 86.9318 279.282 86.9318 278.648C86.9318 277.961 86.7761 277.333 86.4645 276.764C86.1659 276.194 85.7505 275.741 85.2183 275.404C84.6991 275.054 84.1084 274.879 83.4464 274.879C83.044 274.879 82.6156 274.983 82.1613 275.19C81.7199 275.397 81.3305 275.676 80.993 276.025C80.6684 276.362 80.4607 276.738 80.3699 277.152V280.046C80.6554 280.72 81.0903 281.29 81.6745 281.756C82.2716 282.209 82.9142 282.436 83.6022 282.436Z" fill="#230B34"/>
<path d="M90.8271 269.538H92.5406V281.095C92.5406 281.652 92.6185 281.995 92.7743 282.125C92.93 282.254 93.1183 282.319 93.3389 282.319C93.6115 282.319 93.8712 282.293 94.1178 282.241C94.3644 282.177 94.5721 282.112 94.7409 282.047L95.0135 283.446C94.7279 283.562 94.3904 283.659 94.001 283.737C93.6115 283.815 93.2675 283.854 92.969 283.854C92.3069 283.854 91.7812 283.666 91.3918 283.29C91.0153 282.915 90.8271 282.39 90.8271 281.717V269.538Z" fill="#230B34"/>
<path d="M100.858 283.912C99.8451 283.912 98.9494 283.672 98.1705 283.193C97.3916 282.714 96.7815 282.073 96.3402 281.27C95.8988 280.467 95.6781 279.593 95.6781 278.648C95.6781 277.69 95.8988 276.815 96.3402 276.025C96.7815 275.236 97.3916 274.601 98.1705 274.122C98.9624 273.643 99.8645 273.403 100.877 273.403C101.903 273.403 102.792 273.649 103.545 274.141C104.311 274.62 104.901 275.255 105.317 276.045C105.745 276.822 105.959 277.664 105.959 278.57C105.959 278.855 105.946 279.075 105.92 279.231H97.489C97.5409 279.891 97.7227 280.48 98.0342 280.998C98.3587 281.503 98.7741 281.905 99.2804 282.203C99.7867 282.487 100.332 282.63 100.916 282.63C101.539 282.63 102.123 282.474 102.668 282.164C103.227 281.853 103.61 281.445 103.817 280.94L105.297 281.348C104.973 282.099 104.408 282.714 103.603 283.193C102.798 283.672 101.883 283.912 100.858 283.912ZM97.4306 278.046H104.363C104.311 277.385 104.122 276.802 103.798 276.297C103.473 275.792 103.058 275.397 102.552 275.113C102.045 274.828 101.487 274.685 100.877 274.685C100.28 274.685 99.7282 274.828 99.222 275.113C98.7157 275.397 98.3003 275.792 97.9758 276.297C97.6642 276.802 97.4825 277.385 97.4306 278.046Z" fill="#230B34"/>
<path d="M122.442 271.48H117.671V283.718H115.919V271.48H111.148V269.926H122.442V271.48Z" fill="#230B34"/>
<path d="M132.981 283.718H131.267V278.046C131.267 277.01 131.079 276.233 130.703 275.715C130.339 275.197 129.813 274.938 129.125 274.938C128.684 274.938 128.236 275.054 127.782 275.287C127.34 275.52 126.951 275.838 126.614 276.239C126.276 276.628 126.029 277.081 125.874 277.599V283.718H124.16V269.538H125.874V275.754C126.276 275.028 126.821 274.459 127.509 274.044C128.21 273.617 128.963 273.403 129.768 273.403C130.573 273.403 131.209 273.591 131.676 273.966C132.143 274.342 132.475 274.854 132.669 275.501C132.877 276.136 132.981 276.854 132.981 277.657V283.718Z" fill="#230B34"/>
<path d="M135.645 271.674V269.538H137.359V271.674H135.645ZM135.645 283.718V273.578H137.359V283.718H135.645Z" fill="#230B34"/>
<path d="M148.954 283.718H147.24V278.046C147.24 276.971 147.071 276.187 146.734 275.695C146.409 275.19 145.91 274.938 145.235 274.938C144.767 274.938 144.3 275.054 143.833 275.287C143.378 275.52 142.969 275.838 142.606 276.239C142.255 276.628 142.002 277.081 141.846 277.599V283.718H140.133V273.578H141.691V275.754C142.093 275.041 142.671 274.472 143.424 274.044C144.19 273.617 145.02 273.403 145.916 273.403C146.708 273.403 147.318 273.591 147.746 273.966C148.188 274.329 148.499 274.834 148.681 275.482C148.863 276.116 148.954 276.841 148.954 277.657V283.718Z" fill="#230B34"/>
<path d="M155.668 283.834C154.747 283.834 153.929 283.595 153.215 283.115C152.514 282.623 151.962 281.982 151.56 281.192C151.17 280.403 150.976 279.561 150.976 278.667C150.976 277.709 151.17 276.835 151.56 276.045C151.962 275.242 152.52 274.601 153.234 274.122C153.948 273.643 154.766 273.403 155.688 273.403C156.532 273.403 157.265 273.61 157.888 274.025C158.524 274.439 159.056 274.964 159.485 275.598V273.578H161.004V283.601C161.004 284.559 160.77 285.369 160.303 286.029C159.848 286.69 159.225 287.188 158.433 287.525C157.654 287.874 156.785 288.049 155.824 288.049C154.682 288.049 153.747 287.849 153.02 287.447C152.293 287.046 151.69 286.502 151.209 285.815L152.202 284.941C152.605 285.537 153.124 285.984 153.76 286.282C154.409 286.58 155.097 286.728 155.824 286.728C156.447 286.728 157.018 286.612 157.538 286.379C158.07 286.159 158.492 285.815 158.803 285.349C159.128 284.883 159.29 284.3 159.29 283.601V281.814C158.914 282.436 158.394 282.928 157.732 283.29C157.083 283.653 156.395 283.834 155.668 283.834ZM156.194 282.436C156.674 282.436 157.135 282.326 157.577 282.105C158.018 281.885 158.388 281.6 158.686 281.251C158.998 280.901 159.199 280.538 159.29 280.163V277.249C159.018 276.563 158.576 276 157.966 275.559C157.356 275.106 156.713 274.879 156.038 274.879C155.35 274.879 154.753 275.067 154.247 275.443C153.754 275.818 153.371 276.297 153.098 276.88C152.838 277.463 152.709 278.072 152.709 278.706C152.709 279.379 152.864 280.001 153.176 280.571C153.488 281.128 153.903 281.581 154.422 281.931C154.954 282.267 155.545 282.436 156.194 282.436Z" fill="#230B34"/>
<path d="M167.255 283.912C166.411 283.912 165.619 283.776 164.879 283.504C164.139 283.219 163.503 282.798 162.971 282.241L163.633 281.037C164.217 281.581 164.801 281.969 165.385 282.203C165.969 282.436 166.567 282.552 167.177 282.552C167.878 282.552 168.449 282.423 168.89 282.164C169.332 281.892 169.552 281.497 169.552 280.979C169.552 280.603 169.435 280.325 169.202 280.143C168.981 279.962 168.663 279.813 168.248 279.697C167.832 279.567 167.339 279.425 166.768 279.269C165.716 278.972 164.911 278.622 164.353 278.22C163.808 277.806 163.535 277.204 163.535 276.414C163.535 275.456 163.899 274.718 164.626 274.2C165.366 273.669 166.307 273.403 167.449 273.403C168.981 273.403 170.188 273.863 171.071 274.782L170.292 275.967C169.5 275.151 168.52 274.743 167.352 274.743C167.001 274.743 166.657 274.789 166.32 274.879C165.982 274.957 165.703 275.106 165.483 275.326C165.262 275.533 165.152 275.831 165.152 276.22C165.152 276.699 165.346 277.042 165.736 277.249C166.125 277.456 166.696 277.67 167.449 277.89C168.215 278.11 168.877 278.331 169.435 278.551C170.007 278.771 170.448 279.056 170.759 279.405C171.071 279.755 171.227 280.241 171.227 280.862C171.227 281.82 170.863 282.572 170.136 283.115C169.409 283.646 168.449 283.912 167.255 283.912Z" fill="#230B34"/>
<path d="M187.854 271.48H183.084V283.718H181.331V271.48H176.561V269.926H187.854V271.48Z" fill="#230B34"/>
<path d="M191.845 283.912C190.832 283.912 189.936 283.672 189.158 283.193C188.392 282.701 187.795 282.06 187.366 281.27C186.938 280.467 186.724 279.6 186.724 278.667C186.724 277.722 186.938 276.854 187.366 276.064C187.808 275.261 188.411 274.62 189.177 274.141C189.956 273.649 190.845 273.403 191.845 273.403C192.857 273.403 193.746 273.649 194.512 274.141C195.291 274.62 195.895 275.261 196.323 276.064C196.765 276.854 196.985 277.722 196.985 278.667C196.985 279.6 196.765 280.467 196.323 281.27C195.895 282.06 195.298 282.701 194.532 283.193C193.766 283.672 192.87 283.912 191.845 283.912ZM188.476 278.687C188.476 279.386 188.625 280.02 188.924 280.59C189.236 281.16 189.644 281.613 190.151 281.95C190.657 282.274 191.222 282.436 191.845 282.436C192.468 282.436 193.033 282.267 193.539 281.931C194.058 281.594 194.467 281.141 194.765 280.571C195.077 279.988 195.233 279.347 195.233 278.648C195.233 277.949 195.077 277.314 194.765 276.744C194.467 276.174 194.058 275.721 193.539 275.384C193.033 275.048 192.468 274.879 191.845 274.879C191.222 274.879 190.657 275.054 190.151 275.404C189.644 275.741 189.236 276.194 188.924 276.764C188.625 277.333 188.476 277.974 188.476 278.687Z" fill="#230B34"/>
<path d="M198.925 279.192V277.638H204.669V279.192H198.925Z" fill="#230B34"/>
<path d="M207.568 283.718V269.926H212.358C213.838 269.926 215.071 270.237 216.058 270.859C217.057 271.467 217.803 272.296 218.297 273.345C218.79 274.381 219.037 275.533 219.037 276.802C219.037 278.201 218.764 279.418 218.219 280.454C217.674 281.49 216.901 282.293 215.902 282.863C214.902 283.433 213.721 283.718 212.358 283.718H207.568ZM217.265 276.802C217.265 275.766 217.07 274.847 216.681 274.044C216.304 273.241 215.752 272.613 215.026 272.16C214.299 271.707 213.409 271.48 212.358 271.48H209.32V282.164H212.358C213.422 282.164 214.318 281.931 215.045 281.464C215.772 280.985 216.324 280.344 216.7 279.541C217.077 278.726 217.265 277.813 217.265 276.802Z" fill="#230B34"/>
<path d="M225.673 283.912C224.661 283.912 223.765 283.672 222.986 283.193C222.22 282.701 221.623 282.06 221.195 281.27C220.766 280.467 220.552 279.6 220.552 278.667C220.552 277.722 220.766 276.854 221.195 276.064C221.636 275.261 222.24 274.62 223.005 274.141C223.784 273.649 224.674 273.403 225.673 273.403C226.686 273.403 227.575 273.649 228.341 274.141C229.12 274.62 229.723 275.261 230.152 276.064C230.593 276.854 230.814 277.722 230.814 278.667C230.814 279.6 230.593 280.467 230.152 281.27C229.723 282.06 229.126 282.701 228.36 283.193C227.594 283.672 226.699 283.912 225.673 283.912ZM222.304 278.687C222.304 279.386 222.454 280.02 222.752 280.59C223.064 281.16 223.473 281.613 223.979 281.95C224.485 282.274 225.05 282.436 225.673 282.436C226.296 282.436 226.861 282.267 227.367 281.931C227.886 281.594 228.295 281.141 228.594 280.571C228.905 279.988 229.061 279.347 229.061 278.648C229.061 277.949 228.905 277.314 228.594 276.744C228.295 276.174 227.886 275.721 227.367 275.384C226.861 275.048 226.296 274.879 225.673 274.879C225.05 274.879 224.485 275.054 223.979 275.404C223.473 275.741 223.064 276.194 222.752 276.764C222.454 277.333 222.304 277.974 222.304 278.687Z" fill="#230B34"/>
<path d="M238.087 283.718V269.926H239.84V282.164H247.551V283.718H238.087Z" fill="#230B34"/>
<path d="M249.186 271.674V269.538H250.9V271.674H249.186ZM249.186 283.718V273.578H250.9V283.718H249.186Z" fill="#230B34"/>
<path d="M257.159 283.912C256.315 283.912 255.523 283.776 254.784 283.504C254.044 283.219 253.408 282.798 252.875 282.241L253.537 281.037C254.122 281.581 254.706 281.969 255.29 282.203C255.874 282.436 256.471 282.552 257.081 282.552C257.782 282.552 258.353 282.423 258.795 282.164C259.236 281.892 259.457 281.497 259.457 280.979C259.457 280.603 259.34 280.325 259.106 280.143C258.886 279.962 258.568 279.813 258.152 279.697C257.737 279.567 257.244 279.425 256.672 279.269C255.621 278.972 254.816 278.622 254.258 278.22C253.713 277.806 253.44 277.204 253.44 276.414C253.44 275.456 253.803 274.718 254.53 274.2C255.27 273.669 256.212 273.403 257.354 273.403C258.886 273.403 260.093 273.863 260.976 274.782L260.197 275.967C259.405 275.151 258.425 274.743 257.257 274.743C256.906 274.743 256.562 274.789 256.224 274.879C255.887 274.957 255.608 275.106 255.387 275.326C255.167 275.533 255.056 275.831 255.056 276.22C255.056 276.699 255.251 277.042 255.64 277.249C256.03 277.456 256.601 277.67 257.354 277.89C258.12 278.11 258.782 278.331 259.34 278.551C259.911 278.771 260.352 279.056 260.664 279.405C260.976 279.755 261.131 280.241 261.131 280.862C261.131 281.82 260.768 282.572 260.041 283.115C259.314 283.646 258.353 283.912 257.159 283.912Z" fill="#230B34"/>
<path d="M268.439 283.213C268.231 283.303 267.9 283.433 267.446 283.601C267.004 283.769 266.511 283.854 265.966 283.854C265.343 283.854 264.804 283.685 264.35 283.349C263.895 282.999 263.668 282.462 263.668 281.736V274.918H262.286V273.578H263.668V270.198H265.382V273.578H267.66V274.918H265.382V281.212C265.408 281.574 265.531 281.846 265.752 282.028C265.972 282.196 266.232 282.28 266.53 282.28C266.868 282.28 267.18 282.222 267.465 282.105C267.751 281.989 267.939 281.905 268.03 281.853L268.439 283.213Z" fill="#230B34"/>
<path d="M269.891 283.718V281.542H271.332V283.718H269.891Z" fill="#230B34"/>
<path d="M295.204 269.926V283.718H293.452V277.443H285.838V283.718H284.086V269.926H285.838V275.889H293.452V269.926H295.204Z" fill="#230B34"/>
<path d="M302.573 283.912C301.56 283.912 300.664 283.672 299.885 283.193C299.107 282.714 298.496 282.073 298.055 281.27C297.614 280.467 297.393 279.593 297.393 278.648C297.393 277.69 297.614 276.815 298.055 276.025C298.496 275.236 299.107 274.601 299.885 274.122C300.677 273.643 301.579 273.403 302.592 273.403C303.617 273.403 304.507 273.649 305.26 274.141C306.026 274.62 306.616 275.255 307.032 276.045C307.46 276.822 307.674 277.664 307.674 278.57C307.674 278.855 307.661 279.075 307.635 279.231H299.204C299.256 279.891 299.438 280.48 299.749 280.998C300.074 281.503 300.489 281.905 300.995 282.203C301.502 282.487 302.047 282.63 302.631 282.63C303.254 282.63 303.838 282.474 304.383 282.164C304.942 281.853 305.325 281.445 305.532 280.94L307.012 281.348C306.688 282.099 306.123 282.714 305.318 283.193C304.513 283.672 303.598 283.912 302.573 283.912ZM299.145 278.046H306.077C306.025 277.385 305.837 276.802 305.513 276.297C305.188 275.792 304.773 275.397 304.267 275.113C303.76 274.828 303.202 274.685 302.592 274.685C301.995 274.685 301.443 274.828 300.937 275.113C300.431 275.397 300.015 275.792 299.691 276.297C299.379 276.802 299.197 277.385 299.145 278.046Z" fill="#230B34"/>
<path d="M309.618 269.538H311.331V281.095C311.331 281.652 311.409 281.995 311.565 282.125C311.721 282.254 311.909 282.319 312.13 282.319C312.402 282.319 312.662 282.293 312.909 282.241C313.155 282.177 313.363 282.112 313.532 282.047L313.804 283.446C313.519 283.562 313.181 283.659 312.792 283.737C312.402 283.815 312.058 283.854 311.76 283.854C311.098 283.854 310.572 283.666 310.182 283.29C309.806 282.915 309.618 282.39 309.618 281.717V269.538Z" fill="#230B34"/>
<path d="M320.622 283.912C319.791 283.912 319.051 283.705 318.402 283.29C317.753 282.876 317.24 282.351 316.864 281.717V287.855H315.15V273.578H316.669V275.482C317.072 274.86 317.597 274.361 318.246 273.986C318.895 273.597 319.603 273.403 320.369 273.403C321.07 273.403 321.712 273.546 322.296 273.83C322.881 274.115 323.387 274.504 323.815 274.996C324.244 275.488 324.575 276.051 324.808 276.686C325.055 277.308 325.178 277.961 325.178 278.648C325.178 279.606 324.984 280.487 324.594 281.29C324.218 282.092 323.685 282.733 322.997 283.213C322.309 283.679 321.518 283.912 320.622 283.912ZM320.096 282.436C320.771 282.436 321.355 282.254 321.849 281.892C322.342 281.529 322.725 281.056 322.997 280.474C323.283 279.891 323.426 279.282 323.426 278.648C323.426 277.961 323.27 277.333 322.958 276.764C322.66 276.194 322.245 275.741 321.712 275.404C321.193 275.054 320.602 274.879 319.94 274.879C319.538 274.879 319.11 274.983 318.655 275.19C318.214 275.397 317.824 275.676 317.487 276.025C317.162 276.362 316.955 276.738 316.864 277.152V280.046C317.149 280.72 317.584 281.29 318.168 281.756C318.766 282.209 319.408 282.436 320.096 282.436Z" fill="#230B34"/>
<path d="M330.768 283.912C329.924 283.912 329.132 283.776 328.392 283.504C327.652 283.219 327.016 282.798 326.484 282.241L327.146 281.037C327.73 281.581 328.314 281.969 328.898 282.203C329.482 282.436 330.08 282.552 330.69 282.552C331.391 282.552 331.962 282.423 332.403 282.164C332.845 281.892 333.065 281.497 333.065 280.979C333.065 280.603 332.948 280.325 332.715 280.143C332.494 279.962 332.176 279.813 331.761 279.697C331.345 279.567 330.852 279.425 330.281 279.269C329.229 278.972 328.424 278.622 327.866 278.22C327.321 277.806 327.048 277.204 327.048 276.414C327.048 275.456 327.412 274.718 328.139 274.2C328.879 273.669 329.82 273.403 330.962 273.403C332.494 273.403 333.701 273.863 334.584 274.782L333.805 275.967C333.013 275.151 332.033 274.743 330.865 274.743C330.514 274.743 330.17 274.789 329.833 274.879C329.495 274.957 329.216 275.106 328.996 275.326C328.775 275.533 328.665 275.831 328.665 276.22C328.665 276.699 328.859 277.042 329.249 277.249C329.638 277.456 330.209 277.67 330.962 277.89C331.728 278.11 332.39 278.331 332.948 278.551C333.52 278.771 333.961 279.056 334.272 279.405C334.584 279.755 334.74 280.241 334.74 280.862C334.74 281.82 334.376 282.572 333.649 283.115C332.922 283.646 331.962 283.912 330.768 283.912Z" fill="#230B34"/>
<path d="M341.65 286.476C341.818 286.489 341.987 286.502 342.156 286.515C342.325 286.541 342.455 286.554 342.545 286.554C342.753 286.554 342.935 286.482 343.091 286.34C343.246 286.197 343.415 285.919 343.597 285.505C343.792 285.103 344.038 284.508 344.337 283.718L340.034 273.578H341.844L345.271 281.989L348.367 273.578H350.061L345.116 286.379C344.947 286.832 344.642 287.227 344.2 287.564C343.772 287.913 343.194 288.088 342.467 288.088C342.351 288.088 342.227 288.082 342.098 288.069C341.981 288.056 341.831 288.03 341.65 287.991V286.476Z" fill="#230B34"/>
<path d="M355.871 283.912C354.859 283.912 353.963 283.672 353.184 283.193C352.418 282.701 351.821 282.06 351.393 281.27C350.964 280.467 350.75 279.6 350.75 278.667C350.75 277.722 350.964 276.854 351.393 276.064C351.834 275.261 352.438 274.62 353.204 274.141C353.982 273.649 354.872 273.403 355.871 273.403C356.884 273.403 357.773 273.649 358.539 274.141C359.318 274.62 359.921 275.261 360.35 276.064C360.791 276.854 361.012 277.722 361.012 278.667C361.012 279.6 360.791 280.467 360.35 281.27C359.921 282.06 359.324 282.701 358.558 283.193C357.792 283.672 356.897 283.912 355.871 283.912ZM352.503 278.687C352.503 279.386 352.652 280.02 352.95 280.59C353.262 281.16 353.671 281.613 354.177 281.95C354.683 282.274 355.248 282.436 355.871 282.436C356.494 282.436 357.059 282.267 357.565 281.931C358.084 281.594 358.493 281.141 358.792 280.571C359.103 279.988 359.259 279.347 359.259 278.648C359.259 277.949 359.103 277.314 358.792 276.744C358.493 276.174 358.084 275.721 357.565 275.384C357.059 275.048 356.494 274.879 355.871 274.879C355.248 274.879 354.683 275.054 354.177 275.404C353.671 275.741 353.262 276.194 352.95 276.764C352.652 277.333 352.503 277.974 352.503 278.687Z" fill="#230B34"/>
<path d="M362.991 279.658V273.578H364.704V279.328C364.704 281.4 365.425 282.436 366.866 282.436C367.567 282.436 368.222 282.215 368.832 281.775C369.455 281.322 369.916 280.707 370.215 279.93V273.578H371.928V281.775C371.928 282.177 372.11 282.384 372.473 282.397V283.718C372.279 283.744 372.123 283.756 372.006 283.756C371.902 283.769 371.798 283.776 371.695 283.776C371.37 283.776 371.091 283.679 370.857 283.485C370.624 283.277 370.5 283.025 370.487 282.727L370.448 281.542C370.007 282.293 369.41 282.876 368.657 283.29C367.917 283.705 367.106 283.912 366.223 283.912C364.068 283.912 362.991 282.494 362.991 279.658Z" fill="#230B34"/>
<path d="M384.965 283.213C384.757 283.303 384.426 283.433 383.972 283.601C383.53 283.769 383.037 283.854 382.492 283.854C381.869 283.854 381.33 283.685 380.876 283.349C380.421 282.999 380.194 282.462 380.194 281.736V274.918H378.812V273.578H380.194V270.198H381.908V273.578H384.186V274.918H381.908V281.212C381.934 281.574 382.057 281.846 382.278 282.028C382.498 282.196 382.758 282.28 383.057 282.28C383.394 282.28 383.706 282.222 383.991 282.105C384.277 281.989 384.465 281.905 384.556 281.853L384.965 283.213Z" fill="#230B34"/>
<path d="M390.859 283.912C389.847 283.912 388.951 283.672 388.172 283.193C387.406 282.701 386.809 282.06 386.381 281.27C385.953 280.467 385.738 279.6 385.738 278.667C385.738 277.722 385.953 276.854 386.381 276.064C386.822 275.261 387.426 274.62 388.192 274.141C388.971 273.649 389.86 273.403 390.859 273.403C391.872 273.403 392.761 273.649 393.527 274.141C394.306 274.62 394.91 275.261 395.338 276.064C395.779 276.854 396 277.722 396 278.667C396 279.6 395.779 280.467 395.338 281.27C394.91 282.06 394.312 282.701 393.547 283.193C392.781 283.672 391.885 283.912 390.859 283.912ZM387.491 278.687C387.491 279.386 387.64 280.02 387.939 280.59C388.25 281.16 388.659 281.613 389.165 281.95C389.672 282.274 390.236 282.436 390.859 282.436C391.483 282.436 392.047 282.267 392.553 281.931C393.073 281.594 393.482 281.141 393.78 280.571C394.092 279.988 394.248 279.347 394.248 278.648C394.248 277.949 394.092 277.314 393.78 276.744C393.482 276.174 393.073 275.721 392.553 275.384C392.047 275.048 391.483 274.879 390.859 274.879C390.236 274.879 389.672 275.054 389.165 275.404C388.659 275.741 388.25 276.194 387.939 276.764C387.64 277.333 387.491 277.974 387.491 278.687Z" fill="#230B34"/>
<path d="M16.512 315.629H14.7985V309.957C14.7985 308.896 14.6233 308.112 14.2728 307.607C13.9353 307.102 13.429 306.85 12.754 306.85C12.066 306.85 11.4429 307.102 10.8847 307.607C10.3265 308.099 9.93058 308.74 9.69692 309.53V315.629H7.98341V309.957C7.98341 308.883 7.81465 308.099 7.47714 307.607C7.13963 307.102 6.63337 306.85 5.95835 306.85C5.28333 306.85 4.66023 307.096 4.08906 307.588C3.53087 308.067 3.13495 308.708 2.90129 309.511V315.629H1.18778V305.49H2.74551V307.665C3.16091 306.914 3.69963 306.338 4.36167 305.937C5.02371 305.522 5.77012 305.315 6.60092 305.315C7.44469 305.315 8.11971 305.548 8.62597 306.014C9.13224 306.468 9.44379 307.057 9.56062 307.782C10.4693 306.137 11.7609 305.315 13.4355 305.315C14.2144 305.315 14.8245 305.503 15.2658 305.878C15.7202 306.241 16.0382 306.746 16.2199 307.393C16.4147 308.028 16.512 308.753 16.512 309.569V315.629Z" fill="#230B34"/>
<path d="M18.378 312.696C18.378 312.049 18.5597 311.492 18.9232 311.026C19.2996 310.547 19.8124 310.178 20.4614 309.919C21.1105 309.66 21.8634 309.53 22.7202 309.53C23.1745 309.53 23.6548 309.569 24.1611 309.647C24.6673 309.711 25.1152 309.815 25.5046 309.957V309.219C25.5046 308.442 25.271 307.834 24.8036 307.393C24.3363 306.94 23.6743 306.714 22.8175 306.714C22.2593 306.714 21.7206 306.817 21.2014 307.024C20.6951 307.219 20.1564 307.504 19.5852 307.879L18.9621 306.675C19.6242 306.222 20.2862 305.885 20.9482 305.665C21.6103 305.432 22.2983 305.315 23.0122 305.315C24.3103 305.315 25.3359 305.678 26.0888 306.403C26.8417 307.115 27.2181 308.112 27.2181 309.394V313.687C27.2181 314.088 27.3999 314.296 27.7633 314.309V315.629C27.5946 315.655 27.4453 315.675 27.3155 315.688C27.1987 315.701 27.1013 315.707 27.0234 315.707C26.621 315.707 26.3159 315.597 26.1082 315.377C25.9135 315.157 25.8032 314.924 25.7772 314.678L25.7383 314.037C25.2969 314.606 24.7193 315.047 24.0053 315.358C23.2913 315.668 22.5839 315.824 21.8829 315.824C21.2079 315.824 20.6042 315.688 20.072 315.416C19.5398 315.131 19.1244 314.755 18.8258 314.289C18.5272 313.81 18.378 313.279 18.378 312.696ZM24.9984 313.415C25.1541 313.234 25.2774 313.052 25.3683 312.871C25.4592 312.677 25.5046 312.515 25.5046 312.386V311.123C24.6738 310.799 23.8171 310.637 22.9343 310.637C22.0646 310.637 21.3571 310.812 20.8119 311.162C20.2797 311.498 20.0136 311.965 20.0136 312.56C20.0136 312.884 20.098 313.201 20.2667 313.512C20.4485 313.81 20.7081 314.056 21.0456 314.25C21.3961 314.445 21.8245 314.542 22.3307 314.542C22.863 314.542 23.3692 314.438 23.8495 314.231C24.3298 314.011 24.7128 313.739 24.9984 313.415Z" fill="#230B34"/>
<path d="M38.7787 315.629H37.0652V309.957C37.0652 308.883 36.8964 308.099 36.5589 307.607C36.2344 307.102 35.7346 306.85 35.0596 306.85C34.5923 306.85 34.125 306.966 33.6576 307.199C33.2033 307.432 32.7944 307.75 32.4309 308.151C32.0804 308.539 31.8273 308.993 31.6715 309.511V315.629H29.958V305.49H31.5158V307.665C31.9182 306.953 32.4958 306.383 33.2487 305.956C34.0146 305.529 34.8454 305.315 35.7411 305.315C36.533 305.315 37.1431 305.503 37.5715 305.878C38.0128 306.241 38.3244 306.746 38.5061 307.393C38.6878 308.028 38.7787 308.753 38.7787 309.569V315.629Z" fill="#230B34"/>
<path d="M40.6449 312.696C40.6449 312.049 40.8267 311.492 41.1902 311.026C41.5666 310.547 42.0794 310.178 42.7284 309.919C43.3775 309.66 44.1304 309.53 44.9871 309.53C45.4415 309.53 45.9218 309.569 46.428 309.647C46.9343 309.711 47.3822 309.815 47.7716 309.957V309.219C47.7716 308.442 47.5379 307.834 47.0706 307.393C46.6033 306.94 45.9413 306.714 45.0845 306.714C44.5263 306.714 43.9876 306.817 43.4683 307.024C42.9621 307.219 42.4234 307.504 41.8522 307.879L41.2291 306.675C41.8911 306.222 42.5532 305.885 43.2152 305.665C43.8773 305.432 44.5653 305.315 45.2792 305.315C46.5773 305.315 47.6028 305.678 48.3558 306.403C49.1087 307.115 49.4851 308.112 49.4851 309.394V313.687C49.4851 314.088 49.6668 314.296 50.0303 314.309V315.629C49.8616 315.655 49.7123 315.675 49.5825 315.688C49.4656 315.701 49.3683 315.707 49.2904 315.707C48.888 315.707 48.5829 315.597 48.3752 315.377C48.1805 315.157 48.0702 314.924 48.0442 314.678L48.0053 314.037C47.5639 314.606 46.9862 315.047 46.2723 315.358C45.5583 315.668 44.8508 315.824 44.1499 315.824C43.4748 315.824 42.8712 315.688 42.339 315.416C41.8068 315.131 41.3914 314.755 41.0928 314.289C40.7942 313.81 40.6449 313.279 40.6449 312.696ZM47.2653 313.415C47.4211 313.234 47.5444 313.052 47.6353 312.871C47.7262 312.677 47.7716 312.515 47.7716 312.386V311.123C46.9408 310.799 46.084 310.637 45.2013 310.637C44.3316 310.637 43.6241 310.812 43.0789 311.162C42.5467 311.498 42.2806 311.965 42.2806 312.56C42.2806 312.884 42.3649 313.201 42.5337 313.512C42.7154 313.81 42.9751 314.056 43.3126 314.25C43.6631 314.445 44.0914 314.542 44.5977 314.542C45.1299 314.542 45.6362 314.438 46.1165 314.231C46.5968 314.011 46.9797 313.739 47.2653 313.415Z" fill="#230B34"/>
<path d="M56.2751 315.746C55.3535 315.746 54.5356 315.506 53.8217 315.027C53.1207 314.535 52.569 313.894 52.1666 313.104C51.7771 312.314 51.5824 311.473 51.5824 310.579C51.5824 309.621 51.7771 308.747 52.1666 307.957C52.569 307.154 53.1272 306.513 53.8411 306.034C54.5551 305.555 55.3729 305.315 56.2946 305.315C57.1384 305.315 57.8718 305.522 58.4949 305.937C59.131 306.351 59.6632 306.875 60.0916 307.51V305.49H61.6104V315.513C61.6104 316.471 61.3767 317.281 60.9094 317.941C60.455 318.601 59.832 319.1 59.0401 319.437C58.2612 319.786 57.3915 319.961 56.4309 319.961C55.2885 319.961 54.3539 319.76 53.627 319.359C52.9 318.958 52.2964 318.414 51.8161 317.727L52.8091 316.853C53.2116 317.449 53.7308 317.896 54.3669 318.194C55.0159 318.491 55.7039 318.64 56.4309 318.64C57.054 318.64 57.6252 318.524 58.1444 318.291C58.6766 318.071 59.0985 317.727 59.4101 317.261C59.7346 316.795 59.8969 316.212 59.8969 315.513V313.726C59.5204 314.347 59.0012 314.84 58.3391 315.202C57.6901 315.565 57.0021 315.746 56.2751 315.746ZM56.8008 314.347C57.2812 314.347 57.742 314.237 58.1833 314.017C58.6247 313.797 58.9947 313.512 59.2932 313.163C59.6048 312.813 59.806 312.45 59.8969 312.075V309.161C59.6242 308.475 59.1829 307.911 58.5728 307.471C57.9627 307.018 57.3201 306.791 56.6451 306.791C55.9571 306.791 55.3599 306.979 54.8537 307.355C54.3604 307.73 53.9774 308.209 53.7048 308.792C53.4452 309.375 53.3154 309.983 53.3154 310.618C53.3154 311.291 53.4712 311.913 53.7827 312.483C54.0943 313.04 54.5097 313.493 55.0289 313.842C55.5611 314.179 56.1518 314.347 56.8008 314.347Z" fill="#230B34"/>
<path d="M68.8738 315.824C67.8612 315.824 66.9655 315.584 66.1867 315.105C65.4078 314.626 64.7977 313.985 64.3563 313.182C63.915 312.379 63.6943 311.505 63.6943 310.56C63.6943 309.601 63.915 308.727 64.3563 307.937C64.7977 307.147 65.4078 306.513 66.1867 306.034C66.9785 305.555 67.8807 305.315 68.8932 305.315C69.9188 305.315 70.808 305.561 71.5609 306.053C72.3268 306.532 72.9174 307.167 73.3328 307.957C73.7612 308.734 73.9754 309.575 73.9754 310.482C73.9754 310.767 73.9624 310.987 73.9364 311.142H65.5052C65.5571 311.803 65.7388 312.392 66.0504 312.91C66.3749 313.415 66.7903 313.817 67.2966 314.114C67.8028 314.399 68.348 314.542 68.9322 314.542C69.5553 314.542 70.1394 314.386 70.6846 314.076C71.2428 313.765 71.6258 313.357 71.8335 312.852L73.3133 313.26C72.9888 314.011 72.4241 314.626 71.6193 315.105C70.8145 315.584 69.8993 315.824 68.8738 315.824ZM65.4468 309.957H72.3787C72.3268 309.297 72.1385 308.714 71.814 308.209C71.4895 307.704 71.0741 307.309 70.5678 307.024C70.0616 306.739 69.5034 306.597 68.8932 306.597C68.2961 306.597 67.7444 306.739 67.2382 307.024C66.7319 307.309 66.3165 307.704 65.992 308.209C65.6804 308.714 65.4987 309.297 65.4468 309.957Z" fill="#230B34"/>
<path d="M80.74 318.388C80.9087 318.401 81.0775 318.414 81.2462 318.427C81.415 318.453 81.5448 318.465 81.6357 318.465C81.8434 318.465 82.0251 318.394 82.1809 318.252C82.3367 318.109 82.5054 317.831 82.6871 317.417C82.8819 317.015 83.1285 316.419 83.4271 315.629L79.1238 305.49H80.9347L84.3617 313.901L87.4577 305.49H89.1517L84.2059 318.291C84.0372 318.744 83.7321 319.139 83.2908 319.476C82.8624 319.825 82.2847 320 81.5578 320C81.4409 320 81.3176 319.994 81.1878 319.981C81.071 319.968 80.9217 319.942 80.74 319.903V318.388Z" fill="#230B34"/>
<path d="M94.9615 315.824C93.9489 315.824 93.0532 315.584 92.2744 315.105C91.5085 314.613 90.9113 313.972 90.483 313.182C90.0546 312.379 89.8404 311.511 89.8404 310.579C89.8404 309.634 90.0546 308.766 90.483 307.976C90.9243 307.173 91.528 306.532 92.2938 306.053C93.0727 305.561 93.9619 305.315 94.9615 305.315C95.974 305.315 96.8632 305.561 97.6291 306.053C98.408 306.532 99.0116 307.173 99.44 307.976C99.8813 308.766 100.102 309.634 100.102 310.579C100.102 311.511 99.8813 312.379 99.44 313.182C99.0116 313.972 98.4145 314.613 97.6486 315.105C96.8827 315.584 95.987 315.824 94.9615 315.824ZM91.5929 310.598C91.5929 311.298 91.7422 311.932 92.0407 312.502C92.3523 313.072 92.7612 313.525 93.2674 313.862C93.7737 314.186 94.3384 314.347 94.9615 314.347C95.5846 314.347 96.1493 314.179 96.6555 313.842C97.1748 313.506 97.5837 313.052 97.8822 312.483C98.1938 311.9 98.3496 311.259 98.3496 310.56C98.3496 309.86 98.1938 309.226 97.8822 308.656C97.5837 308.086 97.1748 307.633 96.6555 307.296C96.1493 306.96 95.5846 306.791 94.9615 306.791C94.3384 306.791 93.7737 306.966 93.2674 307.316C92.7612 307.652 92.3523 308.106 92.0407 308.675C91.7422 309.245 91.5929 309.886 91.5929 310.598Z" fill="#230B34"/>
<path d="M102.081 311.57V305.49H103.794V311.24C103.794 313.311 104.515 314.347 105.956 314.347C106.657 314.347 107.312 314.127 107.923 313.687C108.546 313.234 109.006 312.619 109.305 311.842V305.49H111.019V313.687C111.019 314.088 111.2 314.296 111.564 314.309V315.629C111.369 315.655 111.213 315.668 111.096 315.668C110.993 315.681 110.889 315.688 110.785 315.688C110.46 315.688 110.181 315.591 109.948 315.396C109.714 315.189 109.591 314.937 109.578 314.639L109.539 313.454C109.097 314.205 108.5 314.788 107.747 315.202C107.007 315.617 106.196 315.824 105.313 315.824C103.158 315.824 102.081 314.406 102.081 311.57Z" fill="#230B34"/>
<path d="M119.247 306.986C118.39 306.998 117.631 307.219 116.969 307.646C116.32 308.06 115.859 308.637 115.586 309.375V315.629H113.873V305.49H115.469V307.84C115.82 307.141 116.281 306.578 116.852 306.15C117.436 305.71 118.046 305.464 118.682 305.412C118.812 305.412 118.922 305.412 119.013 305.412C119.104 305.412 119.182 305.419 119.247 305.432V306.986Z" fill="#230B34"/>
<path d="M124.753 310.579C124.753 309.621 124.948 308.747 125.337 307.957C125.74 307.154 126.285 306.513 126.973 306.034C127.674 305.555 128.472 305.315 129.368 305.315C130.186 305.315 130.919 305.529 131.568 305.956C132.217 306.383 132.723 306.901 133.087 307.51V301.45H134.8V313.687C134.8 314.088 134.982 314.296 135.346 314.309V315.629C135.021 315.681 134.768 315.707 134.586 315.707C134.249 315.707 133.95 315.591 133.691 315.358C133.444 315.124 133.321 314.865 133.321 314.581V313.726C132.918 314.373 132.379 314.885 131.704 315.26C131.029 315.636 130.328 315.824 129.602 315.824C128.667 315.824 127.83 315.584 127.09 315.105C126.363 314.613 125.792 313.972 125.376 313.182C124.961 312.379 124.753 311.511 124.753 310.579ZM133.087 312.075V309.161C132.931 308.721 132.678 308.326 132.328 307.976C131.977 307.614 131.581 307.329 131.14 307.121C130.711 306.901 130.283 306.791 129.855 306.791C129.193 306.791 128.608 306.973 128.102 307.335C127.609 307.698 127.219 308.17 126.934 308.753C126.661 309.336 126.525 309.951 126.525 310.598C126.525 311.272 126.674 311.893 126.973 312.463C127.284 313.033 127.706 313.493 128.239 313.842C128.771 314.179 129.361 314.347 130.01 314.347C130.426 314.347 130.854 314.25 131.296 314.056C131.737 313.849 132.126 313.57 132.464 313.221C132.801 312.871 133.009 312.489 133.087 312.075Z" fill="#230B34"/>
<path d="M136.863 312.696C136.863 312.049 137.044 311.492 137.408 311.026C137.784 310.547 138.297 310.178 138.946 309.919C139.595 309.66 140.348 309.53 141.205 309.53C141.659 309.53 142.14 309.569 142.646 309.647C143.152 309.711 143.6 309.815 143.989 309.957V309.219C143.989 308.442 143.756 307.834 143.288 307.393C142.821 306.94 142.159 306.714 141.302 306.714C140.744 306.714 140.205 306.817 139.686 307.024C139.18 307.219 138.641 307.504 138.07 307.879L137.447 306.675C138.109 306.222 138.771 305.885 139.433 305.665C140.095 305.432 140.783 305.315 141.497 305.315C142.795 305.315 143.821 305.678 144.573 306.403C145.326 307.115 145.703 308.112 145.703 309.394V313.687C145.703 314.088 145.885 314.296 146.248 314.309V315.629C146.079 315.655 145.93 315.675 145.8 315.688C145.683 315.701 145.586 315.707 145.508 315.707C145.106 315.707 144.801 315.597 144.593 315.377C144.398 315.157 144.288 314.924 144.262 314.678L144.223 314.037C143.782 314.606 143.204 315.047 142.49 315.358C141.776 315.668 141.069 315.824 140.368 315.824C139.693 315.824 139.089 315.688 138.557 315.416C138.024 315.131 137.609 314.755 137.311 314.289C137.012 313.81 136.863 313.279 136.863 312.696ZM143.483 313.415C143.639 313.234 143.762 313.052 143.853 312.871C143.944 312.677 143.989 312.515 143.989 312.386V311.123C143.159 310.799 142.302 310.637 141.419 310.637C140.549 310.637 139.842 310.812 139.297 311.162C138.764 311.498 138.498 311.965 138.498 312.56C138.498 312.884 138.583 313.201 138.751 313.512C138.933 313.81 139.193 314.056 139.53 314.25C139.881 314.445 140.309 314.542 140.815 314.542C141.348 314.542 141.854 314.438 142.334 314.231C142.815 314.011 143.197 313.739 143.483 313.415Z" fill="#230B34"/>
<path d="M148.443 303.586V301.45H150.156V303.586H148.443ZM148.443 315.629V305.49H150.156V315.629H148.443Z" fill="#230B34"/>
<path d="M152.969 301.45H154.683V313.007C154.683 313.564 154.761 313.907 154.916 314.037C155.072 314.166 155.26 314.231 155.481 314.231C155.754 314.231 156.013 314.205 156.26 314.153C156.507 314.088 156.714 314.024 156.883 313.959L157.156 315.358C156.87 315.474 156.533 315.571 156.143 315.649C155.754 315.727 155.41 315.765 155.111 315.765C154.449 315.765 153.923 315.578 153.534 315.202C153.157 314.827 152.969 314.302 152.969 313.629V301.45Z" fill="#230B34"/>
<path d="M158.608 318.388C158.777 318.401 158.945 318.414 159.114 318.427C159.283 318.453 159.413 318.465 159.504 318.465C159.711 318.465 159.893 318.394 160.049 318.252C160.205 318.109 160.373 317.831 160.555 317.417C160.75 317.015 160.996 316.419 161.295 315.629L156.992 305.49H158.803L162.23 313.901L165.326 305.49H167.02L162.074 318.291C161.905 318.744 161.6 319.139 161.159 319.476C160.73 319.825 160.153 320 159.426 320C159.309 320 159.186 319.994 159.056 319.981C158.939 319.968 158.79 319.942 158.608 319.903V318.388Z" fill="#230B34"/>
<path d="M173.183 301.45H174.896V313.007C174.896 313.564 174.974 313.907 175.13 314.037C175.286 314.166 175.474 314.231 175.694 314.231C175.967 314.231 176.227 314.205 176.473 314.153C176.72 314.088 176.928 314.024 177.096 313.959L177.369 315.358C177.083 315.474 176.746 315.571 176.356 315.649C175.967 315.727 175.623 315.765 175.324 315.765C174.662 315.765 174.137 315.578 173.747 315.202C173.371 314.827 173.183 314.302 173.183 313.629V301.45Z" fill="#230B34"/>
<path d="M178.715 303.586V301.45H180.429V303.586H178.715ZM178.715 315.629V305.49H180.429V315.629H178.715Z" fill="#230B34"/>
<path d="M183.748 315.629V306.83H182.365V305.49H183.748V305.276C183.748 304.033 184.027 303.055 184.585 302.343C185.156 301.618 185.916 301.255 186.863 301.255C187.694 301.255 188.441 301.462 189.103 301.877L188.674 303.139C188.259 302.855 187.772 302.712 187.214 302.712C186.656 302.712 186.221 302.932 185.909 303.373C185.611 303.8 185.461 304.415 185.461 305.218V305.49H188.168V306.83H185.461V315.629H183.748Z" fill="#230B34"/>
<path d="M194.147 315.824C193.134 315.824 192.239 315.584 191.46 315.105C190.681 314.626 190.071 313.985 189.63 313.182C189.188 312.379 188.967 311.505 188.967 310.56C188.967 309.601 189.188 308.727 189.63 307.937C190.071 307.147 190.681 306.513 191.46 306.034C192.252 305.555 193.154 305.315 194.166 305.315C195.192 305.315 196.081 305.561 196.834 306.053C197.6 306.532 198.191 307.167 198.606 307.957C199.034 308.734 199.249 309.575 199.249 310.482C199.249 310.767 199.236 310.987 199.21 311.142H190.778C190.83 311.803 191.012 312.392 191.324 312.91C191.648 313.415 192.063 313.817 192.57 314.114C193.076 314.399 193.621 314.542 194.205 314.542C194.828 314.542 195.413 314.386 195.958 314.076C196.516 313.765 196.899 313.357 197.107 312.852L198.587 313.26C198.262 314.011 197.697 314.626 196.892 315.105C196.088 315.584 195.172 315.824 194.147 315.824ZM190.72 309.957H197.652C197.6 309.297 197.412 308.714 197.087 308.209C196.763 307.704 196.347 307.309 195.841 307.024C195.335 306.739 194.777 306.597 194.166 306.597C193.569 306.597 193.018 306.739 192.511 307.024C192.005 307.309 191.59 307.704 191.265 308.209C190.954 308.714 190.772 309.297 190.72 309.957Z" fill="#230B34"/>
<path d="M201.212 317.203L201.601 315.474H201.017V313.454H202.633V315.474L202.049 317.203H201.212Z" fill="#230B34"/>
<path d="M222.369 305.49H224.024L219.701 315.629H218.202L216.235 310.851L214.288 315.629H212.789L208.466 305.49H210.101L213.606 313.94L215.242 309.783L213.528 305.509H215.028L216.235 308.734L217.442 305.509H218.942L217.248 309.783L218.883 313.94L222.369 305.49Z" fill="#230B34"/>
<path d="M225.626 303.586V301.45H227.34V303.586H225.626ZM225.626 315.629V305.49H227.34V315.629H225.626Z" fill="#230B34"/>
<path d="M235.371 315.124C235.163 315.215 234.832 315.345 234.378 315.513C233.937 315.681 233.443 315.765 232.898 315.765C232.275 315.765 231.736 315.597 231.282 315.26C230.828 314.911 230.6 314.373 230.6 313.648V306.83H229.218V305.49H230.6V302.11H232.314V305.49H234.592V306.83H232.314V313.124C232.34 313.486 232.463 313.758 232.684 313.94C232.905 314.108 233.164 314.192 233.463 314.192C233.8 314.192 234.112 314.134 234.397 314.017C234.683 313.901 234.871 313.817 234.962 313.765L235.371 315.124Z" fill="#230B34"/>
<path d="M245.78 315.629H244.066V309.957C244.066 308.922 243.878 308.145 243.502 307.627C243.138 307.109 242.612 306.85 241.924 306.85C241.483 306.85 241.035 306.966 240.581 307.199C240.14 307.432 239.75 307.75 239.413 308.151C239.075 308.539 238.828 308.993 238.673 309.511V315.629H236.959V301.45H238.673V307.665C239.075 306.94 239.62 306.37 240.308 305.956C241.009 305.529 241.762 305.315 242.567 305.315C243.372 305.315 244.008 305.503 244.475 305.878C244.943 306.254 245.274 306.765 245.468 307.413C245.676 308.047 245.78 308.766 245.78 309.569V315.629Z" fill="#230B34"/>
<path d="M252.884 315.824C251.871 315.824 250.976 315.584 250.197 315.105C249.431 314.613 248.834 313.972 248.406 313.182C247.977 312.379 247.763 311.511 247.763 310.579C247.763 309.634 247.977 308.766 248.406 307.976C248.847 307.173 249.451 306.532 250.216 306.053C250.995 305.561 251.884 305.315 252.884 305.315C253.897 305.315 254.786 305.561 255.552 306.053C256.331 306.532 256.934 307.173 257.363 307.976C257.804 308.766 258.025 309.634 258.025 310.579C258.025 311.511 257.804 312.379 257.363 313.182C256.934 313.972 256.337 314.613 255.571 315.105C254.805 315.584 253.91 315.824 252.884 315.824ZM249.515 310.598C249.515 311.298 249.665 311.932 249.963 312.502C250.275 313.072 250.684 313.525 251.19 313.862C251.696 314.186 252.261 314.347 252.884 314.347C253.507 314.347 254.072 314.179 254.578 313.842C255.097 313.506 255.506 313.052 255.805 312.483C256.116 311.9 256.272 311.259 256.272 310.56C256.272 309.86 256.116 309.226 255.805 308.656C255.506 308.086 255.097 307.633 254.578 307.296C254.072 306.96 253.507 306.791 252.884 306.791C252.261 306.791 251.696 306.966 251.19 307.316C250.684 307.652 250.275 308.106 249.963 308.675C249.665 309.245 249.515 309.886 249.515 310.598Z" fill="#230B34"/>
<path d="M260.004 311.57V305.49H261.717V311.24C261.717 313.311 262.438 314.347 263.878 314.347C264.579 314.347 265.235 314.127 265.845 313.687C266.468 313.234 266.929 312.619 267.228 311.842V305.49H268.941V313.687C268.941 314.088 269.123 314.296 269.486 314.309V315.629C269.292 315.655 269.136 315.668 269.019 315.668C268.915 315.681 268.811 315.688 268.707 315.688C268.383 315.688 268.104 315.591 267.87 315.396C267.636 315.189 267.513 314.937 267.5 314.639L267.461 313.454C267.02 314.205 266.423 314.788 265.67 315.202C264.93 315.617 264.119 315.824 263.236 315.824C261.081 315.824 260.004 314.406 260.004 311.57Z" fill="#230B34"/>
<path d="M277.053 315.124C276.845 315.215 276.514 315.345 276.06 315.513C275.618 315.681 275.125 315.765 274.58 315.765C273.957 315.765 273.418 315.597 272.964 315.26C272.509 314.911 272.282 314.373 272.282 313.648V306.83H270.9V305.49H272.282V302.11H273.996V305.49H276.274V306.83H273.996V313.124C274.022 313.486 274.145 313.758 274.366 313.94C274.586 314.108 274.846 314.192 275.144 314.192C275.482 314.192 275.794 314.134 276.079 314.017C276.365 313.901 276.553 313.817 276.644 313.765L277.053 315.124Z" fill="#230B34"/>
<path d="M282.767 312.696C282.767 312.049 282.949 311.492 283.313 311.026C283.689 310.547 284.202 310.178 284.851 309.919C285.5 309.66 286.253 309.53 287.11 309.53C287.564 309.53 288.044 309.569 288.551 309.647C289.057 309.711 289.505 309.815 289.894 309.957V309.219C289.894 308.442 289.66 307.834 289.193 307.393C288.726 306.94 288.064 306.714 287.207 306.714C286.649 306.714 286.11 306.817 285.591 307.024C285.085 307.219 284.546 307.504 283.975 307.879L283.352 306.675C284.014 306.222 284.676 305.885 285.338 305.665C286 305.432 286.688 305.315 287.402 305.315C288.7 305.315 289.725 305.678 290.478 306.403C291.231 307.115 291.608 308.112 291.608 309.394V313.687C291.608 314.088 291.789 314.296 292.153 314.309V315.629C291.984 315.655 291.835 315.675 291.705 315.688C291.588 315.701 291.491 315.707 291.413 315.707C291.011 315.707 290.705 315.597 290.498 315.377C290.303 315.157 290.193 314.924 290.167 314.678L290.128 314.037C289.686 314.606 289.109 315.047 288.395 315.358C287.681 315.668 286.973 315.824 286.272 315.824C285.597 315.824 284.994 315.688 284.462 315.416C283.929 315.131 283.514 314.755 283.215 314.289C282.917 313.81 282.767 313.279 282.767 312.696ZM289.388 313.415C289.544 313.234 289.667 313.052 289.758 312.871C289.849 312.677 289.894 312.515 289.894 312.386V311.123C289.063 310.799 288.207 310.637 287.324 310.637C286.454 310.637 285.747 310.812 285.201 311.162C284.669 311.498 284.403 311.965 284.403 312.56C284.403 312.884 284.487 313.201 284.656 313.512C284.838 313.81 285.098 314.056 285.435 314.25C285.786 314.445 286.214 314.542 286.72 314.542C287.252 314.542 287.759 314.438 288.239 314.231C288.719 314.011 289.102 313.739 289.388 313.415Z" fill="#230B34"/>
<path d="M303.168 315.629H301.455V309.957C301.455 308.883 301.286 308.099 300.948 307.607C300.624 307.102 300.124 306.85 299.449 306.85C298.982 306.85 298.515 306.966 298.047 307.199C297.593 307.432 297.184 307.75 296.82 308.151C296.47 308.539 296.217 308.993 296.061 309.511V315.629H294.348V305.49H295.905V307.665C296.308 306.953 296.885 306.383 297.638 305.956C298.404 305.529 299.235 305.315 300.131 305.315C300.922 305.315 301.533 305.503 301.961 305.878C302.402 306.241 302.714 306.746 302.896 307.393C303.077 308.028 303.168 308.753 303.168 309.569V315.629Z" fill="#230B34"/>
<path d="M306.11 318.388C306.279 318.401 306.447 318.414 306.616 318.427C306.785 318.453 306.915 318.465 307.006 318.465C307.213 318.465 307.395 318.394 307.551 318.252C307.707 318.109 307.875 317.831 308.057 317.417C308.252 317.015 308.498 316.419 308.797 315.629L304.494 305.49H306.305L309.732 313.901L312.828 305.49H314.522L309.576 318.291C309.407 318.744 309.102 319.139 308.661 319.476C308.232 319.825 307.655 320 306.928 320C306.811 320 306.688 319.994 306.558 319.981C306.441 319.968 306.292 319.942 306.11 319.903V318.388Z" fill="#230B34"/>
<path d="M329.466 315.629H327.753V309.957C327.753 308.922 327.565 308.145 327.188 307.627C326.825 307.109 326.299 306.85 325.611 306.85C325.17 306.85 324.722 306.966 324.268 307.199C323.826 307.432 323.437 307.75 323.099 308.151C322.762 308.539 322.515 308.993 322.359 309.511V315.629H320.646V301.45H322.359V307.665C322.762 306.94 323.307 306.37 323.995 305.956C324.696 305.529 325.449 305.315 326.254 305.315C327.058 305.315 327.695 305.503 328.162 305.878C328.629 306.254 328.96 306.765 329.155 307.413C329.363 308.047 329.466 308.766 329.466 309.569V315.629Z" fill="#230B34"/>
<path d="M331.333 312.696C331.333 312.049 331.514 311.492 331.878 311.026C332.254 310.547 332.767 310.178 333.416 309.919C334.065 309.66 334.818 309.53 335.675 309.53C336.129 309.53 336.61 309.569 337.116 309.647C337.622 309.711 338.07 309.815 338.459 309.957V309.219C338.459 308.442 338.226 307.834 337.758 307.393C337.291 306.94 336.629 306.714 335.772 306.714C335.214 306.714 334.675 306.817 334.156 307.024C333.65 307.219 333.111 307.504 332.54 307.879L331.917 306.675C332.579 306.222 333.241 305.885 333.903 305.665C334.565 305.432 335.253 305.315 335.967 305.315C337.265 305.315 338.291 305.678 339.044 306.403C339.796 307.115 340.173 308.112 340.173 309.394V313.687C340.173 314.088 340.355 314.296 340.718 314.309V315.629C340.549 315.655 340.4 315.675 340.27 315.688C340.153 315.701 340.056 315.707 339.978 315.707C339.576 315.707 339.271 315.597 339.063 315.377C338.868 315.157 338.758 314.924 338.732 314.678L338.693 314.037C338.252 314.606 337.674 315.047 336.96 315.358C336.246 315.668 335.539 315.824 334.838 315.824C334.163 315.824 333.559 315.688 333.027 315.416C332.495 315.131 332.079 314.755 331.781 314.289C331.482 313.81 331.333 313.279 331.333 312.696ZM337.953 313.415C338.109 313.234 338.232 313.052 338.323 312.871C338.414 312.677 338.459 312.515 338.459 312.386V311.123C337.629 310.799 336.772 310.637 335.889 310.637C335.019 310.637 334.312 310.812 333.767 311.162C333.234 311.498 332.968 311.965 332.968 312.56C332.968 312.884 333.053 313.201 333.221 313.512C333.403 313.81 333.663 314.056 334 314.25C334.351 314.445 334.779 314.542 335.285 314.542C335.818 314.542 336.324 314.438 336.804 314.231C337.285 314.011 337.668 313.739 337.953 313.415Z" fill="#230B34"/>
<path d="M346.398 315.824C345.554 315.824 344.763 315.688 344.023 315.416C343.283 315.131 342.647 314.71 342.114 314.153L342.776 312.949C343.361 313.493 343.945 313.881 344.529 314.114C345.113 314.347 345.71 314.464 346.32 314.464C347.021 314.464 347.592 314.334 348.034 314.076C348.475 313.804 348.696 313.409 348.696 312.891C348.696 312.515 348.579 312.237 348.345 312.055C348.125 311.874 347.807 311.725 347.391 311.609C346.976 311.479 346.483 311.337 345.911 311.181C344.86 310.883 344.055 310.534 343.497 310.132C342.952 309.718 342.679 309.116 342.679 308.326C342.679 307.368 343.043 306.629 343.77 306.111C344.509 305.58 345.451 305.315 346.593 305.315C348.125 305.315 349.332 305.775 350.215 306.694L349.436 307.879C348.644 307.063 347.664 306.655 346.496 306.655C346.145 306.655 345.801 306.701 345.464 306.791C345.126 306.869 344.847 307.018 344.626 307.238C344.406 307.445 344.295 307.743 344.295 308.132C344.295 308.611 344.49 308.954 344.879 309.161C345.269 309.368 345.84 309.582 346.593 309.802C347.359 310.022 348.021 310.242 348.579 310.463C349.15 310.683 349.592 310.968 349.903 311.317C350.215 311.667 350.37 312.152 350.37 312.774C350.37 313.732 350.007 314.483 349.28 315.027C348.553 315.558 347.592 315.824 346.398 315.824Z" fill="#230B34"/>
<path d="M355.906 315.824C355.062 315.824 354.27 315.688 353.53 315.416C352.79 315.131 352.154 314.71 351.622 314.153L352.284 312.949C352.868 313.493 353.452 313.881 354.037 314.114C354.621 314.347 355.218 314.464 355.828 314.464C356.529 314.464 357.1 314.334 357.542 314.076C357.983 313.804 358.204 313.409 358.204 312.891C358.204 312.515 358.087 312.237 357.853 312.055C357.632 311.874 357.314 311.725 356.899 311.609C356.484 311.479 355.99 311.337 355.419 311.181C354.368 310.883 353.563 310.534 353.005 310.132C352.459 309.718 352.187 309.116 352.187 308.326C352.187 307.368 352.55 306.629 353.277 306.111C354.017 305.58 354.958 305.315 356.101 305.315C357.632 305.315 358.84 305.775 359.722 306.694L358.943 307.879C358.152 307.063 357.172 306.655 356.003 306.655C355.653 306.655 355.309 306.701 354.971 306.791C354.634 306.869 354.355 307.018 354.134 307.238C353.913 307.445 353.803 307.743 353.803 308.132C353.803 308.611 353.998 308.954 354.387 309.161C354.777 309.368 355.348 309.582 356.101 309.802C356.866 310.022 357.529 310.242 358.087 310.463C358.658 310.683 359.099 310.968 359.411 311.317C359.722 311.667 359.878 312.152 359.878 312.774C359.878 313.732 359.515 314.483 358.788 315.027C358.061 315.558 357.1 315.824 355.906 315.824Z" fill="#230B34"/>
<path d="M361.967 301.45H363.681V313.007C363.681 313.564 363.758 313.907 363.914 314.037C364.07 314.166 364.258 314.231 364.479 314.231C364.751 314.231 365.011 314.205 365.258 314.153C365.504 314.088 365.712 314.024 365.881 313.959L366.153 315.358C365.868 315.474 365.53 315.571 365.141 315.649C364.752 315.727 364.408 315.765 364.109 315.765C363.447 315.765 362.921 315.578 362.532 315.202C362.155 314.827 361.967 314.302 361.967 313.629V301.45Z" fill="#230B34"/>
<path d="M371.998 315.824C370.985 315.824 370.089 315.584 369.31 315.105C368.532 314.626 367.921 313.985 367.48 313.182C367.039 312.379 366.818 311.505 366.818 310.56C366.818 309.601 367.039 308.727 367.48 307.937C367.921 307.147 368.532 306.513 369.31 306.034C370.102 305.555 371.004 305.315 372.017 305.315C373.043 305.315 373.932 305.561 374.685 306.053C375.451 306.532 376.041 307.167 376.457 307.957C376.885 308.734 377.099 309.575 377.099 310.482C377.099 310.767 377.086 310.987 377.06 311.142H368.629C368.681 311.803 368.863 312.392 369.174 312.91C369.499 313.415 369.914 313.817 370.42 314.114C370.927 314.399 371.472 314.542 372.056 314.542C372.679 314.542 373.263 314.386 373.808 314.076C374.367 313.765 374.75 313.357 374.957 312.852L376.437 313.26C376.113 314.011 375.548 314.626 374.743 315.105C373.938 315.584 373.023 315.824 371.998 315.824ZM368.571 309.957H375.503C375.451 309.297 375.262 308.714 374.938 308.209C374.613 307.704 374.198 307.309 373.692 307.024C373.185 306.739 372.627 306.597 372.017 306.597C371.42 306.597 370.868 306.739 370.362 307.024C369.856 307.309 369.44 307.704 369.116 308.209C368.804 308.714 368.622 309.297 368.571 309.957Z" fill="#230B34"/>
<path d="M379.315 310.968V301.702H381.029V310.968H379.315ZM379.315 315.629V313.221H381.029V315.629H379.315Z" fill="#230B34"/>
<path d="M59.9234 209.247V155.789H82.6338C85.0985 155.789 87.362 156.291 89.4243 157.295C91.5369 158.298 93.3477 159.654 94.8567 161.36C96.3657 163.067 97.5477 164.974 98.4028 167.083C99.2579 169.191 99.6855 171.349 99.6855 173.558C99.6855 176.57 98.9813 179.431 97.5729 182.141C96.1645 184.852 94.2028 187.061 91.6878 188.767C89.2231 190.474 86.3308 191.327 83.011 191.327H70.3355V209.247H59.9234ZM70.3355 182.217H82.4074C84.3188 182.217 85.9033 181.439 87.1608 179.883C88.4686 178.276 89.1225 176.168 89.1225 173.558C89.1225 170.797 88.3931 168.664 86.9344 167.158C85.4757 165.652 83.8158 164.899 81.9548 164.899H70.3355V182.217Z" fill="#230B34"/>
<path d="M105.876 154.283H115.986V196.598C115.986 198.455 116.288 199.685 116.892 200.287C117.495 200.889 118.325 201.191 119.381 201.191C120.186 201.191 121.016 201.09 121.871 200.889C122.726 200.689 123.481 200.438 124.135 200.137L125.493 207.816C124.135 208.469 122.55 208.971 120.74 209.322C118.929 209.674 117.294 209.849 115.835 209.849C112.666 209.849 110.202 209.021 108.441 207.365C106.731 205.658 105.876 203.249 105.876 200.137V154.283Z" fill="#230B34"/>
<path d="M127.182 197.577C127.182 195.017 127.886 192.783 129.294 190.875C130.753 188.918 132.765 187.412 135.33 186.358C137.896 185.304 140.838 184.777 144.158 184.777C145.818 184.777 147.503 184.927 149.213 185.228C150.923 185.479 152.407 185.856 153.665 186.358V184.25C153.665 181.74 152.91 179.807 151.401 178.452C149.942 177.097 147.754 176.419 144.837 176.419C142.674 176.419 140.612 176.796 138.65 177.549C136.688 178.301 134.626 179.406 132.463 180.861L129.219 174.236C131.834 172.529 134.5 171.249 137.216 170.396C139.983 169.542 142.875 169.116 145.893 169.116C151.527 169.116 155.903 170.521 159.021 173.332C162.19 176.143 163.775 180.159 163.775 185.379V197.953C163.775 199.057 163.951 199.835 164.303 200.287C164.655 200.689 165.284 200.94 166.189 201.04V209.247C165.284 209.448 164.454 209.573 163.699 209.624C162.995 209.724 162.392 209.774 161.889 209.774C159.877 209.774 158.342 209.322 157.286 208.419C156.23 207.515 155.601 206.411 155.4 205.106L155.174 203.073C153.413 205.332 151.25 207.064 148.685 208.268C146.17 209.423 143.579 210 140.914 210C138.248 210 135.884 209.473 133.821 208.419C131.759 207.315 130.124 205.834 128.917 203.977C127.76 202.069 127.182 199.936 127.182 197.577ZM151.778 199.609C153.036 198.405 153.665 197.25 153.665 196.146V192.155C151.049 191.101 148.408 190.574 145.742 190.574C143.076 190.574 140.913 191.152 139.254 192.306C137.594 193.41 136.764 194.891 136.764 196.748C136.764 198.254 137.367 199.61 138.575 200.814C139.782 202.019 141.517 202.621 143.781 202.621C145.29 202.621 146.748 202.345 148.157 201.793C149.615 201.241 150.823 200.513 151.778 199.609Z" fill="#230B34"/>
<path d="M209.967 209.247H199.856V187.111C199.856 183.948 199.303 181.639 198.196 180.184C197.09 178.728 195.556 178 193.594 178C192.236 178 190.853 178.352 189.444 179.054C188.086 179.757 186.854 180.736 185.747 181.991C184.641 183.196 183.836 184.601 183.333 186.207V209.247H173.223V169.793H182.352V177.097C183.811 174.637 185.923 172.705 188.69 171.299C191.456 169.843 194.575 169.116 198.046 169.116C200.51 169.116 202.522 169.567 204.082 170.471C205.641 171.324 206.848 172.504 207.703 174.01C208.558 175.465 209.137 177.122 209.438 178.979C209.791 180.836 209.967 182.719 209.967 184.626V209.247Z" fill="#230B34"/>
<path d="M255.502 209.247H245.391V187.111C245.391 183.948 244.838 181.639 243.732 180.184C242.625 178.728 241.091 178 239.129 178C237.771 178 236.388 178.352 234.979 179.054C233.621 179.757 232.389 180.736 231.282 181.991C230.176 183.196 229.371 184.601 228.868 186.207V209.247H218.758V169.793H227.887V177.097C229.346 174.637 231.458 172.705 234.225 171.299C236.991 169.843 240.11 169.116 243.581 169.116C246.045 169.116 248.057 169.567 249.617 170.471C251.176 171.324 252.383 172.504 253.238 174.01C254.093 175.465 254.672 177.122 254.974 178.979C255.326 180.836 255.502 182.719 255.502 184.626V209.247Z" fill="#230B34"/>
<path d="M282.627 210C278.352 210 274.655 209.071 271.536 207.214C268.468 205.357 266.079 202.897 264.368 199.835C262.658 196.723 261.803 193.36 261.803 189.746C261.803 186.032 262.633 182.618 264.293 179.506C266.003 176.344 268.417 173.834 271.536 171.977C274.655 170.069 278.377 169.116 282.703 169.116C287.028 169.116 290.725 170.069 293.794 171.977C296.862 173.834 299.201 176.319 300.811 179.431C302.471 182.493 303.3 185.806 303.3 189.37C303.3 190.675 303.225 191.804 303.074 192.758H272.517C272.768 195.82 273.9 198.229 275.912 199.986C277.974 201.743 280.339 202.621 283.004 202.621C285.016 202.621 286.903 202.144 288.663 201.191C290.474 200.187 291.706 198.882 292.36 197.275L301.037 199.685C299.578 202.697 297.239 205.181 294.02 207.139C290.801 209.046 287.003 210 282.627 210ZM272.291 186.358H292.964C292.662 183.396 291.53 181.012 289.569 179.205C287.657 177.348 285.318 176.419 282.552 176.419C279.836 176.419 277.497 177.348 275.535 179.205C273.624 181.012 272.542 183.396 272.291 186.358Z" fill="#230B34"/>
<path d="M333 178.527C329.932 178.527 327.19 179.13 324.776 180.334C322.362 181.489 320.626 183.17 319.57 185.379V209.247H309.46V169.793H318.74V178.226C320.098 175.516 321.859 173.382 324.021 171.826C326.235 170.27 328.548 169.417 330.963 169.266C332.019 169.266 332.698 169.291 333 169.342V178.527Z" fill="#230B34"/>
<path d="M91.8387 14.3811C91.386 13.8791 90.4303 13.2266 88.9716 12.4234C87.5129 11.5701 85.7524 10.8172 83.6901 10.1646C81.6781 9.46188 79.5907 9.11051 77.4278 9.11051C71.7439 9.11051 68.9019 11.1183 68.9019 15.134C68.9019 16.5897 69.3546 17.7442 70.26 18.5975C71.1654 19.4508 72.5235 20.1786 74.3343 20.781C76.1451 21.3833 78.4086 22.0359 81.1248 22.7386C84.6458 23.6422 87.6889 24.6963 90.2542 25.901C92.8698 27.1056 94.8567 28.7119 96.2148 30.7197C97.6232 32.6774 98.3274 35.2875 98.3274 38.5503C98.3274 42.3651 97.3968 45.4522 95.5357 47.8114C93.7249 50.1204 91.3105 51.8019 88.2925 52.856C85.2745 53.9101 82.005 54.4372 78.4841 54.4372C74.4601 54.4372 70.4612 53.8348 66.4875 52.6301C62.5641 51.3752 59.0683 49.6686 56 47.5102L60.6024 38.5503C61.0551 39.002 61.8599 39.6044 63.0168 40.3573C64.1737 41.06 65.5821 41.7879 67.242 42.5408C68.9019 43.2435 70.7127 43.8459 72.6744 44.3478C74.6361 44.8498 76.623 45.1008 78.635 45.1008C84.3691 45.1008 87.2362 43.2686 87.2362 39.6044C87.2362 38.0483 86.6578 36.7934 85.5009 35.8397C84.344 34.886 82.7093 34.0828 80.5967 33.4303C78.5344 32.7778 76.12 32.0499 73.3535 31.2468C69.9331 30.2931 67.0911 29.239 64.8276 28.0845C62.6144 26.8798 60.9545 25.399 59.8479 23.6421C58.7413 21.8351 58.188 19.5512 58.188 16.7904C58.188 13.1262 59.0431 10.0642 60.7533 7.60464C62.5138 5.09486 64.8779 3.21252 67.8456 1.95763C70.8133 0.652544 74.108 0 77.7296 0C81.4517 0 84.9224 0.602347 88.1416 1.80704C91.3608 3.01174 94.1273 4.39212 96.4411 5.94818L91.8387 14.3811Z" fill="#230B34"/>
<path d="M123.549 54.5878C119.273 54.5878 115.576 53.6591 112.458 51.8019C109.389 49.9447 107 47.4851 105.29 44.4231C103.58 41.311 102.725 37.9479 102.725 34.3338C102.725 30.6193 103.555 27.206 105.215 24.0939C106.925 20.9316 109.339 18.4218 112.458 16.5646C115.576 14.6571 119.298 13.7034 123.624 13.7034C127.95 13.7034 131.647 14.6571 134.715 16.5646C137.784 18.4218 140.123 20.9065 141.732 24.0186C143.392 27.0805 144.222 30.3935 144.222 33.9574C144.222 35.2624 144.147 36.3918 143.996 37.3456H113.439C113.69 40.4075 114.822 42.8169 116.834 44.5737C118.896 46.3306 121.26 47.209 123.926 47.209C125.938 47.209 127.824 46.7321 129.585 45.7784C131.396 44.7745 132.628 43.4694 133.282 41.8632L141.959 44.2726C140.5 47.2843 138.161 49.769 134.942 51.7266C131.723 53.634 127.925 54.5878 123.549 54.5878ZM113.212 30.9456H133.885C133.584 27.9841 132.452 25.5998 130.49 23.7927C128.579 21.9355 126.24 21.0069 123.473 21.0069C120.757 21.0069 118.418 21.9355 116.457 23.7927C114.545 25.5998 113.464 27.9841 113.212 30.9456Z" fill="#230B34"/>
<path d="M173.704 51.8019C172.346 52.4043 170.661 53.0066 168.649 53.6089C166.687 54.2113 164.65 54.5125 162.538 54.5125C160.676 54.5125 158.966 54.1862 157.407 53.5337C155.848 52.8811 154.59 51.8521 153.634 50.4466C152.729 48.991 152.276 47.1086 152.276 44.7996V22.1363H147.07V14.3811H152.276V1.58116H162.387V14.3811H170.686V22.1363H162.387V41.4114C162.387 42.7667 162.739 43.7455 163.443 44.3478C164.197 44.9502 165.103 45.2514 166.159 45.2514C167.215 45.2514 168.247 45.0757 169.253 44.7243C170.259 44.373 171.063 44.0718 171.667 43.8208L173.704 51.8019Z" fill="#230B34"/>
<path d="M103.609 127.873V92.7866L89.877 118.913H84.0673L70.3355 92.7866V127.873H59.9234V74.415H71.09L86.9344 104.834L102.93 74.415H114.021V127.873H103.609Z" fill="#230B34"/>
<path d="M125.054 135.553C126.915 136.055 128.424 136.306 129.581 136.306C130.939 136.306 132.021 135.729 132.826 134.575C133.681 133.47 134.636 131.237 135.693 127.873L120.075 88.4196H130.562L141.201 117.558L150.556 88.4196H160.214L143.615 135.704C142.71 138.414 141.075 140.648 138.711 142.405C136.397 144.212 133.53 145.116 130.109 145.116C128.45 145.116 126.764 144.84 125.054 144.287V135.553Z" fill="#230B34"/>
<path d="M216.341 103.339V116.795H229.825L269.593 77.1095L256.109 63.6538L216.341 103.339ZM280.02 66.7037C281.423 65.3043 281.423 63.0438 280.02 61.6444L271.606 53.248C270.204 51.8486 267.939 51.8486 266.537 53.248L259.956 59.8144L273.44 73.2701L280.02 66.7037Z" fill="#230B34"/>
<path d="M247.995 19.3253C211.552 19.3253 181.976 48.8404 181.976 85.2071C181.976 121.574 211.552 151.089 247.995 151.089C284.437 151.089 314.013 121.574 314.013 85.2071C314.013 48.8404 284.437 19.3253 247.995 19.3253ZM247.995 141.624C218.815 141.624 191.46 114.327 191.46 85.2071C191.46 56.0873 218.815 28.79 247.995 28.79C277.175 28.79 304.529 56.0873 304.529 85.2071C304.529 114.327 277.175 141.624 247.995 141.624Z" fill="#230B34"/>
</svg>
