<svg width="24" height="22" viewBox="0 0 24 22" fill="none" xmlns="http://www.w3.org/2000/svg">
<path d="M12 4.125C7 4.125 2.73 6.97583 1 11C2.73 15.0242 7 17.875 12 17.875C17 17.875 21.27 15.0242 23 11C21.27 6.97583 17 4.125 12 4.125ZM12 15.5833C9.24 15.5833 7 13.53 7 11C7 8.47 9.24 6.41667 12 6.41667C14.76 6.41667 17 8.47 17 11C17 13.53 14.76 15.5833 12 15.5833ZM12 8.25C10.34 8.25 9 9.47833 9 11C9 12.5217 10.34 13.75 12 13.75C13.66 13.75 15 12.5217 15 11C15 9.47833 13.66 8.25 12 8.25Z" fill="#FFB600"/>
</svg>
