<svg width="33" height="25" viewBox="0 0 33 25" fill="none" xmlns="http://www.w3.org/2000/svg">
<path d="M30.2897 0.80542H3.18729C1.69666 0.80542 0.477051 1.97624 0.477051 3.40725V21.6201C0.477051 23.0511 1.69666 24.2219 3.18729 24.2219H30.2897C31.7803 24.2219 32.9864 23.0511 32.9864 21.6201L32.9999 3.40725C32.9999 1.97624 31.7803 0.80542 30.2897 0.80542ZM11.318 4.70817C13.5675 4.70817 15.3834 6.45139 15.3834 8.61091C15.3834 10.7704 13.5675 12.5137 11.318 12.5137C9.06851 12.5137 7.25265 10.7704 7.25265 8.61091C7.25265 6.45139 9.06851 4.70817 11.318 4.70817ZM19.4487 20.3191H3.18729V19.0182C3.18729 16.4164 8.60777 14.9854 11.318 14.9854C14.0282 14.9854 19.4487 16.4164 19.4487 19.0182V20.3191ZM24.6659 15.1155H26.8883L28.9346 17.7173L26.2379 20.3061C24.4627 19.0312 23.1482 17.21 22.5384 15.1155C22.2945 14.2829 22.159 13.4113 22.159 12.5137C22.159 11.616 22.2945 10.7444 22.5384 9.91183C23.1482 7.80434 24.4627 5.99607 26.2379 4.72117L28.9346 7.31L26.8883 9.91183H24.6659C24.3678 10.7314 24.1916 11.603 24.1916 12.5137C24.1916 13.4243 24.3678 14.2959 24.6659 15.1155Z" fill="#FFB600"/>
</svg>
