<svg width="36" height="35" viewBox="0 0 36 35" fill="none" xmlns="http://www.w3.org/2000/svg">
<path d="M21.4512 34.0274L16.9808 28.2526H8.67857C8.25513 28.2526 7.84903 28.0788 7.54962 27.7694C7.2502 27.4599 7.08199 27.0403 7.08199 26.6027V8.62326C7.08199 8.18567 7.2502 7.766 7.54962 7.45658C7.84903 7.14715 8.25513 6.97332 8.67857 6.97332H34.2238C34.6473 6.97332 35.0533 7.14715 35.3528 7.45658C35.6522 7.766 35.8204 8.18567 35.8204 8.62326V26.6027C35.8204 27.0403 35.6522 27.4599 35.3528 27.7694C35.0533 28.0788 34.6473 28.2526 34.2238 28.2526H25.9216L21.4512 34.0274ZM24.3873 24.9527H32.6272V10.2732H10.2751V24.9527H18.5151L21.4512 28.7443L24.3873 24.9527ZM2.29226 0.203613H29.4341V3.5035H3.88883V21.6528H0.695679V1.85355C0.695679 1.41596 0.863889 0.996294 1.16331 0.68687C1.46272 0.377446 1.86882 0.203613 2.29226 0.203613Z" fill="#FFB600"/>
</svg>
