<svg width="34" height="33" viewBox="0 0 34 33" fill="none" xmlns="http://www.w3.org/2000/svg">
<path d="M9.02917 20.9892V24.3104H12.3504L22.1459 14.515L18.8247 11.1937L9.02917 20.9892ZM24.7143 11.9465C25.0598 11.6011 25.0598 11.0431 24.7143 10.6977L22.6419 8.62527C22.2965 8.27986 21.7385 8.27986 21.3931 8.62527L19.7723 10.246L23.0936 13.5673L24.7143 11.9465V11.9465Z" fill="#FFB600"/>
<path d="M16.8261 0.252319C7.84982 0.252319 0.564697 7.53744 0.564697 16.5138C0.564697 25.4901 7.84982 32.7752 16.8261 32.7752C25.8024 32.7752 33.0876 25.4901 33.0876 16.5138C33.0876 7.53744 25.8024 0.252319 16.8261 0.252319ZM16.8261 28.9936C9.63858 28.9936 4.34631 23.7013 4.34631 16.5138C4.34631 9.3262 9.63858 4.03393 16.8261 4.03393C24.0137 4.03393 29.306 9.3262 29.306 16.5138C29.306 23.7013 24.0137 28.9936 16.8261 28.9936Z" fill="#FFB600"/>
</svg>
